#!OML:ASF Y:\EmotionMaleHayes\Project 1\Capture day 1\Session 1\Male1.ASF
:FULLY-SPECIFIED
:DEGREES
1412
root 47.7611 17.392 -2.66336 1064.01 79.4178 1066.62
lowerback 3.74701 2.71918 -5.80726
upperback 3.32412 3.56123 -1.18339
thorax 1.05888 1.72257 1.92156
lowerneck -30.0125 2.27134 3.39706
upperneck 15.7477 2.5293 -3.59983
head 9.94143 0.927399 -1.415
rclavicle 3.27995e-015 1.27222e-014
rhumerus 1.86442 22.734 -68.783
rradius 38.8036
rwrist 0.244612
rhand -2.85975 -31.8248
rfingers 7.12502
rthumb 22.8486 -60.4914
lclavicle 3.27995e-015 1.27222e-014
lhumerus 8.28251 -34.8829 62.7981
lradius 38.9465
lwrist 1.16026
lhand -12.1183 -22.3369
lfingers 7.12502
lthumb 13.943 7.17557
rfemur 7.84336 -1.82104 7.05932
rtibia 8.49693
rfoot -9.10909 -6.96748
rtoes 1.46546
lfemur 9.87458 1.12433 -15.5489
ltibia 5.59675
lfoot -12.6874 8.96195
ltoes -3.97572
1413
root 47.779 17.386 -2.65454 1066.03 79.7329 1068.6
lowerback 3.6651 2.71712 -6.26477
upperback 3.34846 3.55939 -1.30613
thorax 1.11366 1.71427 2.05366
lowerneck -29.9145 2.31212 3.52743
upperneck 15.6474 2.60836 -3.92462
head 9.90011 0.932446 -1.53924
rclavicle 3.598e-014 -3.18055e-014
rhumerus 1.33129 22.6685 -69.0749
rradius 38.6889
rwrist 0.281271
rhand -2.96803 -31.72
rfingers 7.12502
rthumb 22.7446 -60.3993
lclavicle 3.598e-014 -3.18055e-014
lhumerus 7.5972 -34.8366 63.4964
lradius 38.7838
lwrist 0.918992
lhand -12.2479 -22.3384
lfingers 7.12502
lthumb 13.8181 7.18264
rfemur 7.49204 -1.92584 6.50847
rtibia 8.61797
rfoot -9.27917 -6.20693
rtoes 3.42672
lfemur 9.84519 1.05853 -16.0842
ltibia 5.56764
lfoot -12.7083 8.92068
ltoes -4.82086
1414
root 47.7908 17.3861 -2.6439 1066.27 80.0091 1068.88
lowerback 4.05728 2.76508 -6.31773
upperback 3.17784 3.58133 -1.40733
thorax 0.719776 1.73937 1.95248
lowerneck -29.8534 2.26519 3.55625
upperneck 15.7583 2.5661 -4.04586
head 9.93144 0.899213 -1.59542
rclavicle -2.0276e-014 3.97569e-014
rhumerus 0.382202 22.3305 -69.6413
rradius 38.7402
rwrist 0.104836
rhand -2.84396 -32.195
rfingers 7.12502
rthumb 22.8637 -60.8597
lclavicle -2.0276e-014 3.97569e-014
lhumerus 6.71691 -35.247 64.1994
lradius 38.6724
lwrist 1.00343
lhand -12.4885 -22.2619
lfingers 7.12502
lthumb 13.5862 7.27484
rfemur 7.14512 -2.11429 6.37994
rtibia 8.84069
rfoot -9.07436 -5.91532
rtoes 2.38895
lfemur 9.86545 0.91843 -16.1628
ltibia 5.54958
lfoot -12.6578 8.86355
ltoes -5.03853
1415
root 47.8148 17.3901 -2.63365 1064.79 80.4798 1067.44
lowerback 4.01603 2.67717 -6.18065
upperback 3.26897 3.47756 -1.36066
thorax 0.849769 1.6847 1.9342
lowerneck -29.7378 2.29267 3.46986
upperneck 15.7767 2.60634 -3.892
head 9.91713 0.932609 -1.5196
rclavicle -4.07509e-014 1.74931e-014
rhumerus -0.288539 21.9401 -70.0329
rradius 38.8947
rwrist 0.00792235
rhand -2.59094 -32.8575
rfingers 7.12502
rthumb 23.1065 -61.4919
lclavicle -4.07509e-014 1.74931e-014
lhumerus 6.17383 -35.5078 64.7744
lradius 38.501
lwrist 1.35254
lhand -12.7723 -22.1016
lfingers 7.12502
lthumb 13.3127 7.45317
rfemur 7.13359 -2.03055 6.61503
rtibia 8.68422
rfoot -9.05837 -5.90661
rtoes 4.39212
lfemur 9.93102 0.717271 -15.9626
ltibia 5.56128
lfoot -12.6124 8.57508
ltoes -5.08119
1416
root 47.8444 17.3896 -2.62482 1063.01 80.8979 1065.67
lowerback 3.62278 2.57607 -5.92686
upperback 3.53461 3.39767 -1.32178
thorax 1.36145 1.63231 1.86433
lowerneck -29.8153 2.27693 3.44094
upperneck 15.68 2.59617 -3.90677
head 9.8941 0.924328 -1.52131
rclavicle 1.00386e-014 -3.33958e-014
rhumerus -0.703662 21.5668 -70.3036
rradius 38.7712
rwrist 0.34538
rhand -2.84401 -32.4985
rfingers 7.12502
rthumb 22.8637 -61.1631
lclavicle 1.00386e-014 -3.33958e-014
lhumerus 5.84386 -35.4383 65.2561
lradius 38.3488
lwrist 1.36023
lhand -12.7836 -22.0672
lfingers 7.12502
lthumb 13.3018 7.4883
rfemur 7.2043 -2.26568 6.83457
rtibia 8.56827
rfoot -9.24254 -5.50291
rtoes 3.49073
lfemur 10.0097 0.534582 -15.7764
ltibia 5.57844
lfoot -12.5632 8.29018
ltoes -5.59491
1417
root 47.8764 17.3821 -2.62255 1064.6 81.788 1067.35
lowerback 3.72345 2.40977 -6.19602
upperback 3.4977 3.16632 -1.50573
thorax 1.28251 1.51809 1.82675
lowerneck -29.6549 2.25794 3.47523
upperneck 15.7958 2.58273 -3.98725
head 9.91162 0.910714 -1.55892
rclavicle -2.5345e-014 2.70347e-014
rhumerus -1.66946 21.491 -70.7454
rradius 38.6916
rwrist 0.438595
rhand -3.47661 -31.8766
rfingers 7.12502
rthumb 22.2565 -60.6151
lclavicle -2.5345e-014 2.70347e-014
lhumerus 4.87143 -35.4033 66.0836
lradius 38.2723
lwrist 1.01575
lhand -12.5025 -22.1481
lfingers 7.12502
lthumb 13.5728 7.38954
rfemur 7.53616 -2.98325 6.05392
rtibia 8.19802
rfoot -8.96459 -5.03895
rtoes 1.82524
lfemur 10.0612 0.0899097 -16.4626
ltibia 5.64307
lfoot -12.5023 8.0255
ltoes -6.1679
1418
root 47.8788 17.3826 -2.6008 1063.49 81.6395 1066.23
lowerback 3.99669 2.53429 -6.12492
upperback 3.3357 3.29876 -1.44851
thorax 0.951782 1.59505 1.82375
lowerneck -29.3425 2.3562 3.54672
upperneck 15.8826 2.71697 -4.06653
head 9.90043 0.96938 -1.57739
rclavicle 4.96962e-016 0
rhumerus -2.60047 21.4886 -71.1698
rradius 38.7168
rwrist 0.385869
rhand -3.71725 -31.6665
rfingers 7.12502
rthumb 22.0255 -60.4324
lclavicle 4.96962e-016 0
lhumerus 3.91584 -35.5895 66.8163
lradius 38.1373
lwrist 0.850588
lhand -12.6795 -22.2174
lfingers 7.12502
lthumb 13.4022 7.3315
rfemur 7.13172 -2.10112 6.63726
rtibia 8.04892
rfoot -9.08897 -5.21025
rtoes 1.6895
lfemur 10.0544 0.086445 -16.0626
ltibia 5.6856
lfoot -12.5548 8.07369
ltoes -5.98929
1419
root 47.8817 17.3803 -2.57225 1062.11 81.2923 1064.89
lowerback 4.17742 2.7252 -6.03457
upperback 3.27715 3.53476 -1.34489
thorax 0.770561 1.7182 1.85908
lowerneck -29.2411 2.4435 3.65743
upperneck 15.9557 2.83088 -4.21492
head 9.9197 1.01076 -1.63015
rclavicle -1.17283e-014 2.54444e-014
rhumerus -3.31883 21.2199 -71.5802
rradius 38.6129
rwrist 0.642928
rhand -3.50106 -31.7416
rfingers 7.12502
rthumb 22.233 -60.4828
lclavicle -1.17283e-014 2.54444e-014
lhumerus 3.12458 -35.9124 67.447
lradius 37.9794
lwrist 0.945201
lhand -12.9501 -22.2483
lfingers 7.12502
lthumb 13.1413 7.31759
rfemur 6.73092 -0.983592 7.40217
rtibia 7.91692
rfoot -9.31492 -5.39358
rtoes 2.9082
lfemur 10.1649 0.33166 -15.4616
ltibia 5.67374
lfoot -12.6188 8.02744
ltoes -5.80829
1420
root 47.9115 17.3768 -2.55826 1062.19 81.7076 1065.02
lowerback 4.05009 2.69917 -6.10483
upperback 3.35858 3.51531 -1.38307
thorax 0.926274 1.70331 1.86863
lowerneck -29.2205 2.5148 3.80134
upperneck 15.9698 2.93118 -4.46944
head 9.93328 1.0344 -1.72826
rclavicle 1.26228e-014 -1.27222e-014
rhumerus -3.99418 20.7114 -71.9931
rradius 38.469
rwrist 0.965743
rhand -3.41049 -31.7292
rfingers 7.12502
rthumb 22.32 -60.46
lclavicle 1.26228e-014 -1.27222e-014
lhumerus 2.42111 -36.0668 68.1407
lradius 37.8717
lwrist 0.952008
lhand -12.7559 -22.1549
lfingers 7.12502
lthumb 13.3285 7.39889
rfemur 6.82927 -1.19077 7.22843
rtibia 7.79183
rfoot -9.2688 -5.00109
rtoes 5.50593
lfemur 10.3307 0.310932 -15.5818
ltibia 5.58561
lfoot -12.5781 7.70562
ltoes -6.1017
1421
root 47.9322 17.3766 -2.54688 1064.02 82.041 1066.84
lowerback 4.06027 2.74241 -6.29776
upperback 3.3066 3.56664 -1.5158
thorax 0.861089 1.73052 1.83464
lowerneck -29.1863 2.53254 3.77524
upperneck 16.1475 2.9679 -4.44959
head 9.99296 1.0511 -1.71205
rclavicle 3.77691e-015 3.02153e-014
rhumerus -4.82168 20.3223 -72.4445
rradius 38.3568
rwrist 0.994545
rhand -3.55604 -31.693
rfingers 7.12502
rthumb 22.1802 -60.4405
lclavicle 3.77691e-015 3.02153e-014
lhumerus 1.61613 -36.2509 68.8825
lradius 37.7758
lwrist 0.660141
lhand -12.7259 -21.994
lfingers 7.12502
lthumb 13.3574 7.55782
rfemur 6.69157 -1.26891 6.83066
rtibia 7.76826
rfoot -9.52425 -4.42131
rtoes 2.8682
lfemur 10.3662 0.0643172 -16.0513
ltibia 5.5475
lfoot -12.6455 7.71628
ltoes -6.03274
1422
root 47.9552 17.3759 -2.53565 1061.34 82.2332 1064.08
lowerback 3.97721 2.72379 -5.79793
upperback 3.23868 3.55535 -1.48967
thorax 0.862635 1.73238 1.58799
lowerneck -29.0838 2.48156 3.78142
upperneck 16.3077 2.90225 -4.44098
head 10.0312 1.02233 -1.72218
rclavicle -1.82882e-014 5.40694e-014
rhumerus -5.59212 20.2332 -72.868
rradius 38.2517
rwrist 0.74615
rhand -3.71482 -31.8582
rfingers 7.12502
rthumb 22.0278 -60.6238
lclavicle -1.82882e-014 5.40694e-014
lhumerus 0.726842 -36.4217 69.6236
lradius 37.63
lwrist 0.324382
lhand -12.8374 -21.8965
lfingers 7.12502
lthumb 13.25 7.66232
rfemur 6.59107 -1.36492 7.26762
rtibia 7.8219
rfoot -10.5526 -3.66248
rtoes -3.61491
lfemur 10.3627 -0.141318 -15.716
ltibia 5.55782
lfoot -12.7231 7.58085
ltoes -5.86934
1423
root 47.9812 17.3709 -2.51903 1060.58 82.518 1063.41
lowerback 3.66486 2.68948 -5.68124
upperback 3.46431 3.55319 -1.52442
thorax 1.27942 1.72193 1.51102
lowerneck -29.054 2.48127 3.91874
upperneck 16.1912 2.87992 -4.59331
head 9.98813 1.00309 -1.8021
rclavicle -7.95139e-015 2.8625e-014
rhumerus -5.96009 20.0634 -73.1982
rradius 38.0946
rwrist 0.496496
rhand -4.0575 -31.7623
rfingers 7.12502
rthumb 21.6987 -60.5662
lclavicle -7.95139e-015 2.8625e-014
lhumerus 0.230174 -36.4005 70.1106
lradius 37.4882
lwrist 0.196302
lhand -12.6861 -21.9178
lfingers 7.12502
lthumb 13.3958 7.63154
rfemur 6.74946 -1.40061 7.31252
rtibia 6.93011
rfoot -10.4115 -3.54452
rtoes -6.78807
lfemur 10.5511 -0.221565 -15.6901
ltibia 5.53132
lfoot -12.6915 7.38497
ltoes -6.29408
1424
root 48.0099 17.3672 -2.49847 1066.93 83.0181 1070.03
lowerback 4.10114 2.71755 -6.67017
upperback 3.25635 3.52361 -1.74307
thorax 0.784682 1.71062 1.80519
lowerneck -28.6973 2.49799 4.0087
upperneck 16.3187 2.91942 -4.74495
head 9.98204 1.01142 -1.86586
rclavicle -1.45113e-014 4.45278e-014
rhumerus -7.1773 19.9 -73.8304
rradius 38.0874
rwrist 0.424797
rhand -4.32524 -31.7425
rfingers 7.12502
rthumb 21.4416 -60.5759
lclavicle -1.45113e-014 4.45278e-014
lhumerus -1.17525 -36.5589 71.135
lradius 37.4125
lwrist 0.231826
lhand -12.485 -22.0234
lfingers 7.12502
lthumb 13.5896 7.51306
rfemur 7.04964 -1.38117 6.20891
rtibia 6.8169
rfoot -10.8273 -3.2509
rtoes -7.34916
lfemur 10.8966 -0.358806 -16.8063
ltibia 5.44367
lfoot -12.6276 7.40539
ltoes -7.31473
